<svg xmlns="http://www.w3.org/2000/svg" version="1.1" xmlns:xlink="http://www.w3.org/1999/xlink" xmlns:svgjs="http://svgjs.dev/svgjs" width="100%" height="100%" viewBox="0 0 1000 600"><rect width="1000" height="600" x="0" y="0" fill="orange"/><g><rect width="333.3333333333333" height="333.3333333333333" rx="13.333333333333334" ry="13.333333333333334" y="141.20955179437436" fill="purple" transform="matrix(1.0505319728739102,0,0,1.0505319728739102,0,-23.43382033881562)" x="118.98733520507812"/><path d="M233.23715840178704 232.87621820076342L276.09846955798463 232.87621820076342Q304.254470419612 232.87621820076342 318.6388314815626 241.19172104590723Q333.0231925435132 249.47804668808567 333.0231925435132 270.07715198167006L333.0231925435132 270.07715198167006Q333.0231925435132 278.88866727722603 329.7845230143519 285.7161327711336Q326.5166762822252 292.54359826504117 320.1268688327989 297.0660647246808Q313.7078841804071 301.5885311843204 304.4587108403699 303.2516317533492L304.4587108403699 303.2516317533492L304.4587108403699 304.30201106010423Q313.91212460116503 305.7900484113405 321.58572898106974 309.7581480146372Q329.2593333609744 313.75542482089935 333.66509100875237 321.1080799681844Q338.0708486565303 328.4607351154695 338.0708486565303 340.2191479105325L338.0708486565303 340.2191479105325Q338.0708486565303 353.8740788983477 331.76857281600024 363.4442014710045Q325.4662969754702 373.01432404366125 313.8245929922688 377.9452713448167Q302.153711806102 382.8762186459722 285.98954136326097 382.8762186459722L285.98954136326097 382.8762186459722L233.23715840178704 382.8762186459722L233.23715840178704 232.87621820076342ZM252.14398592337727 296.7451154920612L279.8915059434888 296.7451154920612Q299.2068143065949 296.7451154920612 306.35522903312204 290.5595484633928Q313.5036437596492 284.344804231759 313.5036437596492 272.1779105951801L313.5036437596492 272.1779105951801Q313.5036437596492 259.7775993348779 304.77966007298954 254.40899398924114Q296.0556763863298 249.06956584656984 276.9446084439817 249.06956584656984L276.9446084439817 249.06956584656984L252.14398592337727 249.06956584656984L252.14398592337727 296.7451154920612ZM280.94188525024384 312.5008050933864L252.14398592337727 312.5008050933864L252.14398592337727 366.9162886238891L282.4007453985147 366.9162886238891Q302.35795222685994 366.9162886238891 310.14826541862624 359.12597543212274Q317.9094014074272 351.36483944332184 317.9094014074272 338.76028776226167L317.9094014074272 338.76028776226167Q317.9094014074272 330.7657341497374 314.43731425454257 324.9011163536886Q310.96522710165794 319.0073213546744 302.8831418802374 315.7686518255131Q294.8010566588169 312.5008050933864 280.94188525024384 312.5008050933864L280.94188525024384 312.5008050933864Z " fill="chartreuse" transform="matrix(1.0505319728739102,0,0,1.0505319728739102,0,-23.43382033881562)"/><path d="M634.5938971673106 342.11566610328464L634.5938971673106 358.513254169849L535.6540019115816 315.0100445484123L535.6540019115816 304.50625148086215L634.5938971673106 255.13842406337656L634.5938971673106 271.53601212994096L555.406968319169 308.94118633160554L634.5938971673106 342.11566610328464ZM703.3062101508676 232.87621820076342L721.3668987864608 232.87621820076342L665.4925551076872 382.8762186459722L647.4026892691288 382.8762186459722L703.3062101508676 232.87621820076342ZM733.971450467521 358.513254169849L733.971450467521 342.11566610328464L813.1583793156626 309.14542675236345L733.971450467521 271.53601212994096L733.971450467521 255.13842406337656L832.91134572325 304.50625148086215L832.91134572325 315.0100445484123L733.971450467521 358.513254169849Z " fill="blue" transform="matrix(1.0505319728739102,0,0,1.0505319728739102,0,-23.43382033881562)"/></g></svg>